<svg xmlns="http://www.w3.org/2000/svg" viewBox="0 0 1850.202 235.268"><path d="M17.942 60.877c-5.4 0-9.682-4.11-9.682-9.293s4.28-9.292 9.682-9.292c5.397 0 9.864 4.108 9.864 9.292s-4.466 9.293-9.864 9.293zm-7.948 42.71c-5.4 0-9.682-4.11-9.682-9.293 0-5.18 4.28-9.47 9.682-9.47 5.397 0 9.864 4.29 9.864 9.47 0 5.184-4.466 9.294-9.864 9.294zm42.573-39.495c-7.076 0-12.846-5.72-12.846-12.51s5.78-12.33 12.85-12.33c6.89 0 12.66 5.54 12.66 12.33s-5.77 12.51-12.66 12.51zm-3.406 42.534c-7.07 0-12.84-5.717-12.84-12.332 0-6.788 5.77-12.33 12.85-12.33 6.89 0 13.03 5.542 13.03 12.33 0 6.615-6.14 12.332-13.03 12.332zm3.41-78.632c-5.4 0-9.87-4.467-9.87-9.65 0-5.183 4.47-9.294 9.87-9.294 5.21 0 9.68 4.11 9.68 9.294 0 5.183-4.46 9.65-9.68 9.65zm44.31 82.92c-9.68 0-17.49-7.505-17.49-16.8 0-9.47 7.82-16.976 17.5-16.976 9.87 0 17.69 7.507 17.69 16.977 0 9.294-7.82 16.8-17.68 16.8zm0-50.228c-6.88 0-12.66-5.72-12.66-12.508 0-6.79 5.78-12.33 12.66-12.33 7.08 0 12.85 5.54 12.85 12.33 0 6.788-5.77 12.508-12.84 12.508zm0-40.64c-5.21 0-9.68-4.468-9.68-9.65 0-5.184 4.47-9.295 9.68-9.295 5.4 0 9.87 4.12 9.87 9.3 0 5.19-4.46 9.65-9.86 9.65zm44.68 90.87c-9.86 0-17.68-7.507-17.68-16.8 0-9.47 7.82-16.978 17.69-16.978 9.68 0 17.5 7.507 17.5 16.977 0 9.294-7.82 16.8-17.5 16.8zm0-50.23c-7.07 0-12.84-5.72-12.84-12.508 0-6.79 5.77-12.33 12.85-12.33 6.89 0 12.66 5.54 12.66 12.33 0 6.788-5.77 12.508-12.66 12.508zm0-40.64c-5.4 0-9.86-4.468-9.86-9.65 0-5.184 4.47-9.295 9.87-9.295 5.21 0 9.68 4.12 9.68 9.3 0 5.19-4.47 9.65-9.68 9.65zm47.72 86.58c-6.88 0-13.03-5.717-13.03-12.33 0-6.79 6.15-12.33 13.03-12.33 7.08 0 12.85 5.54 12.85 12.33 0 6.613-5.77 12.33-12.84 12.33zm-3.4-42.534c-6.88 0-12.66-5.72-12.66-12.51s5.78-12.33 12.66-12.33c7.08 0 12.85 5.54 12.85 12.33s-5.77 12.51-12.85 12.51zm0-36.098c-5.21 0-9.68-4.467-9.68-9.65 0-5.183 4.47-9.294 9.69-9.294 5.4 0 9.87 4.11 9.87 9.294 0 5.183-4.47 9.65-9.86 9.65zm34.62 32.883c-5.4 0-9.87-4.11-9.87-9.293s4.47-9.292 9.87-9.292c5.4 0 9.68 4.108 9.68 9.292s-4.28 9.293-9.68 9.293zm7.95 42.71c-5.4 0-9.86-4.11-9.86-9.293 0-5.18 4.47-9.47 9.87-9.47 5.395 0 9.68 4.29 9.68 9.47 0 5.184-4.285 9.294-9.683 9.294zM9.68 151.547c-5.4 0-9.682-4.29-9.682-9.473 0-5 4.284-9.295 9.682-9.295 5.394 0 9.866 4.29 9.866 9.29 0 5.18-4.47 9.47-9.866 9.47zm7.948 42.71c-5.398 0-9.682-4.286-9.682-9.468 0-5.19 4.284-9.3 9.682-9.3 5.395 0 9.866 4.11 9.866 9.29 0 5.18-4.47 9.46-9.866 9.46zm31.218-39.85c-7.072 0-12.843-5.542-12.843-12.333 0-6.61 5.77-12.152 12.843-12.152 6.886 0 13.032 5.54 13.032 12.152 0 6.79-6.146 12.332-13.032 12.332zm3.406 42.712c-7.072 0-12.843-5.55-12.843-12.33 0-6.62 5.77-12.52 12.84-12.52 6.88 0 12.66 5.89 12.66 12.51 0 6.78-5.78 12.33-12.66 12.33zm0 30.19c-5.398 0-9.865-4.11-9.865-9.3 0-5.18 4.464-9.47 9.862-9.47 5.21 0 9.68 4.29 9.68 9.47 0 5.18-4.47 9.29-9.68 9.29zm44.308-68.08c-9.68 0-17.5-7.51-17.5-16.8 0-9.48 7.82-16.98 17.5-16.98 9.867 0 17.686 7.5 17.686 16.98 0 9.29-7.82 16.79-17.687 16.79zm0 41.29c-6.89 0-12.66-5.55-12.66-12.33 0-6.62 5.77-12.51 12.66-12.51 7.072 0 12.845 5.89 12.845 12.51 0 6.78-5.773 12.33-12.846 12.33zm0 34.74c-5.212 0-9.68-4.12-9.68-9.3 0-5.18 4.468-9.46 9.68-9.46 5.397 0 9.867 4.28 9.867 9.46 0 5.18-4.47 9.3-9.868 9.3zm44.675-76.04c-9.867 0-17.686-7.51-17.686-16.8 0-9.48 7.81-16.98 17.68-16.98 9.68 0 17.5 7.5 17.5 16.98 0 9.29-7.82 16.79-17.5 16.79zm0 41.29c-7.072 0-12.845-5.55-12.845-12.33 0-6.62 5.772-12.51 12.845-12.51 6.886 0 12.66 5.89 12.66 12.51 0 6.78-5.774 12.33-12.66 12.33zm0 34.74c-5.4 0-9.867-4.12-9.867-9.3 0-5.18 4.468-9.46 9.867-9.46 5.212 0 9.678 4.29 9.678 9.47 0 5.18-4.466 9.3-9.678 9.3zm47.715-80.86c-6.9 0-13.04-5.54-13.04-12.33 0-6.61 6.14-12.15 13.03-12.15 7.07 0 12.84 5.54 12.84 12.15 0 6.79-5.773 12.33-12.844 12.33zm-3.41 42.71c-6.89 0-12.66-5.55-12.66-12.33 0-6.62 5.77-12.52 12.66-12.52 7.07 0 12.84 5.89 12.84 12.51 0 6.78-5.78 12.33-12.85 12.33zm0 30.19c-5.22 0-9.68-4.11-9.68-9.3 0-5.18 4.46-9.47 9.68-9.47 5.4 0 9.86 4.29 9.86 9.47 0 5.18-4.47 9.29-9.87 9.29zm42.57-75.77c-5.4 0-9.87-4.29-9.87-9.48 0-5 4.47-9.29 9.862-9.29s9.68 4.29 9.68 9.29c0 5.18-4.28 9.47-9.68 9.47zm-7.95 42.71c-5.4 0-9.87-4.29-9.87-9.47 0-5.19 4.465-9.3 9.863-9.3 5.397 0 9.68 4.11 9.68 9.29 0 5.18-4.28 9.46-9.68 9.46z" fill="#A41F35"/><path d="M310.615 158.102c-8.954 0-17.127-2.617-21.41-5.354l-2.853-13.204c7.916 5.357 15.96 8.1 24.91 8.1 9.21 0 15.31-4.986 15.31-12.333 0-6.85-4.41-11.45-14.402-14.57-14.79-4.61-22.573-12.58-22.573-23.54 0-11.08 8.56-21.67 26.206-21.67 8.173 0 15.05 2.49 18.035 4.61l-2.465 9.97c-2.856-1.99-9.34-4.61-16.09-4.61-8.43 0-13.622 4.99-13.622 10.84 0 5.23 4.67 9.47 13.37 12.33 14.41 4.74 24.13 12.09 24.13 25.54 0 14.2-9.86 23.91-28.54 23.91zm68.76-.122c-17.515 0-31.27-12.083-31.27-29.522 0-17.56 13.755-29.643 31.27-29.643 17.516 0 31.14 12.083 31.14 29.643 0 17.438-13.623 29.52-31.14 29.52zm0-49.2c-10.38 0-19.33 7.847-19.33 19.678 0 11.708 8.95 19.556 19.33 19.556 10.25 0 19.204-7.848 19.204-19.556 0-11.83-8.96-19.68-19.21-19.68zm55.663 50.07c-3.895-.996-11.678-4.732-11.678-15.57V67.928h11.808v73.86c0 5.23 4.28 8.718 7.914 9.34l-8.044 7.723zm26.982-69.5c-2.336 0-7.136-4.608-7.136-6.85 0-2.366 4.8-6.974 7.136-6.974 2.464 0 7.264 4.608 7.264 6.974 0 2.24-4.8 6.85-7.264 6.85zm-5.97 67.258v-56.423h11.936v56.423H456.05zm73.303-43.592c-5.317-3.24-10.12-4.236-15.827-4.236-10.77 0-20.758 7.474-20.758 19.68 0 12.08 10.25 19.555 21.02 19.555 5.446 0 10.25-.996 16.864-3.985l-2.464 11.084c-4.282 1.868-9.6 2.866-15.438 2.866-16.09 0-31.917-11.087-31.917-29.52 0-18.558 15.828-29.644 31.917-29.644 7.784 0 13.88 1.62 18.812 4.236l-2.21 9.964zm20.63-23.666c-2.333 0-7.135-4.608-7.135-6.85 0-2.366 4.802-6.974 7.136-6.974 2.464 0 7.264 4.608 7.264 6.974 0 2.24-4.8 6.85-7.264 6.85zm-5.967 67.258v-56.423h11.935v56.423h-11.93zm63.31-47.33h-18.68v31.39c0 4.606 3.892 7.097 8.69 7.097 2.466 0 4.673-.25 6.488-.873l-2.336 10.09c-1.298.374-2.983.498-5.32.498-10.637 0-19.2-5.98-19.2-17.188v-31.015H565.42v-9.092h11.547V88.727l11.677-5.854v17.313H609.4l-2.073 9.09zm38.014 48.702c-17.514 0-31.265-12.083-31.265-29.522 0-17.56 13.75-29.643 31.266-29.643s31.14 12.083 31.14 29.643c0 17.438-13.62 29.52-31.14 29.52zm0-49.2c-10.378 0-19.33 7.847-19.33 19.678 0 11.708 8.952 19.556 19.33 19.556 10.25 0 19.204-7.848 19.204-19.556 0-11.83-8.954-19.68-19.203-19.68zm75.382.25c-9.472 0-20.89 4.856-20.89 20.925v26.653h-11.805v-56.423h11.155l.52 8.845c3.115-6.976 11.156-9.59 19.982-9.59l2.205 9.59h-1.17zm24.388 48.95c-6.874 0-12.972-1.87-16.475-4.11l-2.725-12.456c4.8 3.986 12.325 6.975 19.46 6.975 5.578 0 9.34-2.87 9.34-6.73 0-3.99-2.98-6.35-8.43-8.22-11.68-4.11-18.166-9.35-18.166-18.44 0-9.47 8.045-16.19 19.72-16.19 6.748 0 13.106 2.24 15.31 3.61l-2.203 9.46c-2.59-1.75-6.87-3.62-13.23-3.62-4.93 0-8.17 2.61-8.17 6.35 0 3.61 2.73 5.48 8.57 7.47 11.81 4.11 18.42 9.21 18.42 19.05 0 9.09-7.13 16.81-21.4 16.81z" fill="#55565A"/><g fill="#A41F35"><path d="M874.374 157.698l-26.08-34.877H836.62v34.88h-12.456V78.24h26.208c11.676 0 24.91 7.225 24.91 22.294 0 10.587-6.487 17.31-14.53 20.427l28.283 36.75h-14.66zm-26.208-69.253H836.62v24.166h11.546c7.396 0 14.272-3.73 14.272-12.08 0-8.22-6.875-12.08-14.272-12.08z"/><path d="M936.29 127.322l-6.327 6.074h-33.875c.373 6.672 6.824 16.08 19.98 16.08 7.196 0 12.78-1.903 17.99-5.477l-2.854 11.55c-3.97 2.02-9.058 3.45-16.626 3.45-16.006 0-30.153-11.44-30.153-28.23 0-18.35 14.89-28.35 27.918-28.35 15.51 0 24.32 10.48 24.32 20.49 0 1.67-.124 3.21-.373 4.4zm-23.327-15.605c-7.073 0-14.642 5.362-16.13 12.866h28.29c.124-.477.124-.953.124-1.434 0-5.36-4.84-11.44-12.284-11.44zm50.127 73.496c-15.385 0-25.56-8.22-25.56-19.417 0-8.098 5.585-14.175 11.665-16.2l-5.708-5.48c0-3.928 3.227-7.265 6.327-8.813-5.21-3.574-8.312-8.694-8.312-14.65 0-10.603 8.687-18.226 21.095-18.226 2.98 0 5.087.36 6.948.834 1.862.48 4.467.72 7.197.72 3.227 0 6.327-.95 8.314-1.9l2.11 8.94c-.868.6-3.722 1.31-5.585 1.43 1.12 1.79 1.99 4.76 1.99 8.22 0 9.65-7.81 18.23-20.97 18.23-4.47 0-7.2.6-7.2 2.98 0 .48.38 1.43 1.62 1.91l15.39 5.13c9.93 3.34 15.76 8.58 15.76 18.46 0 10.25-10.05 17.87-25.06 17.87zm5.957-27.158l-9.803-2.74c-6.948 0-11.66 4.528-11.66 10.48 0 5.362 5.085 10.724 15.26 10.724 9.928 0 14.89-5.01 14.89-9.3 0-4.17-2.853-7.51-8.687-9.17zm-6.45-46.696c-6.205 0-10.795 4.4-10.795 9.29 0 5.12 4.59 9.29 10.795 9.29 5.708 0 10.67-4.17 10.67-9.29 0-4.89-4.467-9.29-10.67-9.29zm68.738 46.33l-.495-5.36c-4.345 4.52-8.563 6.67-17.37 6.67-12.286 0-21.345-7.51-21.345-19.54v-35.73h11.294v34.67c0 5.6 3.59 11.31 13.02 11.31 9.06 0 13.52-5.72 13.52-11.32v-34.66h11.29v53.96h-9.93zm29.655 2.14c-3.723-.96-11.168-4.53-11.168-14.9V72.88h11.293v70.64c0 5 4.094 8.336 7.57 8.93l-7.695 7.388zm54.717-.84c-3.845-.84-6.95-3.58-8.19-6.91-3.97 5-9.677 6.91-15.758 6.91-11.17 0-18.12-7.87-18.12-16.56 0-10.49 8.93-16.44 18.49-17.28l13.15-1.19v-3.46c0-4.89-2.98-8.82-10.92-8.82-5.59 0-11.42 1.66-15.51 4.29l-2.24-8.94c5.09-3.22 11.54-4.65 18.36-4.65 12.53 0 21.59 6.79 21.59 19.532v21.8c0 4.884 2.73 7.743 6.33 8.34l-7.19 6.92zm-10.42-26.09l-11.17.95c-6.7.59-9.68 4.76-9.68 8.69 0 3.81 3.354 7.26 7.82 7.26 5.955 0 13.028-5.36 13.028-12.15v-4.76zm55.46-20.49h-17.865v30.02c0 4.4 3.724 6.79 8.314 6.79 2.355 0 4.466-.24 6.203-.84l-2.24 9.65c-1.24.35-2.86.47-5.09.47-10.18 0-18.37-5.72-18.37-16.44V112.4h-11.04v-8.694h11.04V92.78l11.17-5.6v16.56h19.85l-1.99 8.692zm14.643-19.06c-2.234 0-6.824-4.41-6.824-6.55 0-2.27 4.59-6.67 6.824-6.67 2.358 0 6.947 4.4 6.947 6.67 0 2.14-4.59 6.55-6.947 6.55zm-5.708 64.32v-53.96h11.414v53.96h-11.414zm48.39 1.31c-16.75 0-29.903-11.56-29.903-28.23 0-16.8 13.15-28.35 29.9-28.35s29.78 11.55 29.78 28.35c0 16.67-13.03 28.23-29.78 28.23zm0-47.06c-9.927 0-18.49 7.5-18.49 18.82 0 11.19 8.564 18.7 18.49 18.7 9.803 0 18.364-7.51 18.364-18.7 0-11.32-8.56-18.83-18.364-18.83zm74.944 45.74V123c0-5.6-3.598-11.31-13.027-11.31-9.06 0-13.53 5.717-13.53 11.315v34.665h-11.29v-53.96h9.92l.49 5.36c4.34-4.524 8.56-6.67 17.37-6.67 12.28 0 21.34 7.506 21.34 19.537v35.74H1293z"/></g><path d="M1421.672 157.806l-8.95-20.552h-32.177l-8.952 20.552h-12.326l35.288-80.586h4.544l35.28 80.586h-12.72zm-21.406-49.572c-1.167-2.615-2.466-6.352-3.503-9.717h-.26c-.908 3.365-2.336 7.102-3.503 9.717l-8.174 19.43h23.613l-8.18-19.43zm82.386 49.572l-.52-5.605c-4.54 4.74-8.95 6.98-18.162 6.98-12.847 0-22.316-7.85-22.316-20.42v-37.37h11.805v36.25c0 5.86 3.76 11.84 13.62 11.84 9.47 0 14.14-5.98 14.14-11.84v-36.25h11.8v56.43h-10.38zm59.03-47.33H1523v31.387c0 4.608 3.894 7.1 8.693 7.1 2.464 0 4.67-.25 6.486-.87l-2.34 10.086c-1.3.37-2.98.49-5.32.49-10.64 0-19.21-5.98-19.21-17.19v-31.01h-11.55v-9.09h11.54V89.92l11.68-5.85v17.31h20.76l-2.08 9.092zm46.578 47.33v-36.244c0-5.856-3.764-11.832-13.624-11.832-9.472 0-14.142 5.976-14.142 11.832v36.244h-11.81V69.123h11.81v36.868c4.282-3.98 8.693-5.97 17.256-5.97 12.843 0 22.314 7.85 22.314 20.43v37.37h-11.805zm51.243 1.37c-17.514 0-31.266-12.08-31.266-29.52 0-17.56 13.752-29.643 31.266-29.643 17.516 0 31.142 12.084 31.142 29.644 0 17.44-13.626 29.52-31.142 29.52zm0-49.2c-10.377 0-19.33 7.85-19.33 19.68 0 11.71 8.953 19.556 19.33 19.556 10.25 0 19.205-7.847 19.205-19.555 0-11.832-8.955-19.68-19.205-19.68zm75.253.252c-9.47 0-20.887 4.857-20.887 20.925v26.653h-11.81v-56.423h11.15l.52 8.845c3.11-6.976 11.15-9.59 19.98-9.59l2.2 9.59h-1.17zm17.254-19.68c-2.334 0-7.135-4.607-7.135-6.85 0-2.37 4.8-6.975 7.135-6.975 2.465 0 7.267 4.606 7.267 6.973 0 2.245-4.802 6.85-7.267 6.85zm-5.967 67.26v-56.425h11.936v56.423h-11.94zm63.18-47.333h-18.682v31.388c0 4.608 3.9 7.1 8.7 7.1 2.47 0 4.67-.25 6.49-.87l-2.33 10.086c-1.29.37-2.98.49-5.32.49-10.64 0-19.2-5.98-19.2-17.19v-31.01h-11.55v-9.09h11.55V89.92l11.68-5.85v17.31h20.76l-2.07 9.092zm39.312 41.85c-8.82 20.8-18.424 29.89-29.97 34.874l-7.136-6.98c10.77-3.86 18.16-11.21 25.03-27.4l-21.93-51.44h12.19l10.9 25.66c1.55 3.61 3.37 8.09 5.06 12.7h.26c1.55-4.36 3.37-8.6 4.93-12.33l11.03-26.03h11.28l-21.67 50.94z" fill="#55565A"/></svg>